<?xml version="1.0" encoding="utf-8"?>
<!-- Generator: Adobe Illustrator 19.0.0, SVG Export Plug-In . SVG Version: 6.00 Build 0)  -->
<!DOCTYPE svg PUBLIC "-//W3C//DTD SVG 1.1//EN" "http://www.w3.org/Graphics/SVG/1.1/DTD/svg11.dtd">
<svg version="1.1" id="Layer_1" xmlns="http://www.w3.org/2000/svg" xmlns:xlink="http://www.w3.org/1999/xlink" x="0px" y="0px"
	 viewBox="-71 0 288 288" style="enable-background:new -71 0 288 288;" xml:space="preserve">
<style type="text/css">
	.st0{fill:#231F20;}
</style>
<path class="st0" d="M194,0H-48.1C-60.7,0-71,10.3-71,22.9v242.2c0,12.6,10.3,22.9,22.9,22.9h242.2c12.6,0,22.9-10.3,22.9-23V22.9
	C217,10.3,206.7,0,194,0z M37.2,125.4c-2.4-0.6-5.9-0.9-10.3-0.9c-6.6,0-11.3,1.5-14.4,4.5c-3,3-4.5,7.4-4.5,13v43h-30.2V97.5H0.4
	l4.7,14h1.5c2.5-4.6,6-8.4,10.6-11.2c4.4-2.9,8.9-4.3,13.5-4.3c2.7,0,5.1,0.3,7.5,0.6l1.7,0.3L37.2,125.4z M94.6,162.5
	c8.9,0,17.3-2.5,25.5-7.8v24.1c-7.9,5.2-17.2,7.8-28.1,7.8c-14.3,0-25.2-3.8-32.6-11.6c-7.4-7.8-11.1-18.9-11.1-33.3
	c0-14.5,4-25.7,12-33.8c8-8,19.4-12,34.2-12c10.2,0,19.8,2.2,28.7,6.6l-8.9,22.3c-3.7-1.7-7-2.9-10.1-3.8c-3.1-0.9-6.4-1.4-9.7-1.4
	c-4.8,0-8.7,1.9-11.3,5.7c-2.7,3.8-4.1,9.2-4.1,16.2C79.1,155.5,84.3,162.5,94.6,162.5z M177.7,132.3L177.7,132.3h-47.9v-11.7
	l16.1-16.3c4.6-4.8,7.6-8,9-9.8c1.4-1.8,2.4-3.3,2.9-4.6c0.5-1.3,0.9-2.5,0.9-4c0-1.7-0.5-3.1-1.7-4.1c-1.1-1-2.7-1.5-4.7-1.5
	s-4.2,0.6-6.2,1.8c-2.2,1.1-4.5,2.9-7.1,5.2l-9.8-11.5c3.4-3.1,6.2-5.2,8.5-6.5s4.8-2.3,7.5-3.1c2.7-0.6,5.7-1,9.2-1
	c4.2,0,8,0.8,11.5,2.3c3.3,1.5,6,3.7,7.8,6.4c1.8,2.7,2.8,5.9,2.8,9.3c0,2.5-0.4,5-1,7.1c-0.6,2.2-1.7,4.3-3.1,6.5
	c-1.4,2.2-3.2,4.3-5.4,6.8c-2.3,2.3-7,6.8-14.3,13.4v0.5h25V132.3z"/>
</svg>
